<svg xmlns="http://www.w3.org/2000/svg" viewBox="0 0 1417.42 918.5"><defs><style>.cls-1,.cls-2{fill:none;stroke-miterlimit:10;}.cls-1{stroke:#1b1464;stroke-width:3.42px;}.cls-2{stroke:#ff6d00;stroke-width:3.18px;}.cls-3{fill:#ff6d00;}.cls-4{font-size:139.92px;}.cls-4,.cls-5,.cls-8{fill:#1b1464;}.cls-4,.cls-5{font-family:TimesNewRomanPSMT, Times New Roman;}.cls-5{font-size:36px;}.cls-6{letter-spacing:-0.08em;}.cls-7{letter-spacing:-0.04em;}</style></defs><g id="Layer_1" data-name="Layer 1"><polygon class="cls-1" points="551.06 453.78 383.7 452.15 299.25 598.42 383.7 744.69 552.6 744.69 635.51 600.05 551.06 453.78"/><polygon class="cls-1" points="803.28 309.07 634.38 309.07 551.47 453.71 635.92 599.98 803.28 601.61 887.73 455.34 803.28 309.07"/><polygon class="cls-1" points="1055.09 164.43 886.2 164.43 803.28 309.07 887.73 455.34 1055.09 456.97 1139.54 310.7 1055.09 164.43"/><path class="cls-1" d="M1446.57,669.22" transform="translate(-290.8 -45.02)"/><path class="cls-1" d="M1175.63,792.08" transform="translate(-290.8 -45.02)"/><path class="cls-1" d="M1675.57,507" transform="translate(-290.8 -45.02)"/><path class="cls-1" d="M1591.12,653.22" transform="translate(-290.8 -45.02)"/><polyline class="cls-1" points="1393.07 459.32 1308.62 313.05 1139.72 313.05 1056.81 457.69 1141.26 603.96 1308.62 605.59"/><polyline class="cls-1" points="803.28 894.15 887.73 747.88 803.28 601.61 634.38 601.61 551.47 746.25 635.92 892.52"/><polyline class="cls-1" points="803.28 18.16 887.73 164.43 1056.63 164.43 1139.54 19.79"/><polyline class="cls-1" points="130.71 599.04 299.61 598.63 383.7 452.15 299.54 308.23"/><polyline class="cls-1" points="1139.54 603.24 1055.09 456.97 886.2 456.97 803.28 601.61 887.73 747.88"/><circle class="cls-2" cx="130.71" cy="599.04" r="22.76"/><circle class="cls-3" cx="130.71" cy="599.04" r="14.48"/><circle class="cls-2" cx="299.54" cy="308.23" r="22.76"/><circle class="cls-3" cx="299.54" cy="308.23" r="14.48"/><circle class="cls-2" cx="635.92" cy="892.52" r="22.76"/><circle class="cls-3" cx="635.92" cy="892.52" r="14.48"/><circle class="cls-2" cx="803.28" cy="894.15" r="22.76"/><circle class="cls-3" cx="803.28" cy="894.15" r="14.48"/><circle class="cls-2" cx="1300.32" cy="608.2" r="22.76"/><circle class="cls-3" cx="1300.32" cy="608.2" r="14.48"/><circle class="cls-2" cx="1393.07" cy="459.32" r="22.76"/><circle class="cls-3" cx="1393.07" cy="459.32" r="14.48"/><circle class="cls-2" cx="1139.54" cy="25.98" r="22.76"/><circle class="cls-3" cx="1139.54" cy="25.98" r="14.48"/><circle class="cls-2" cx="803.28" cy="24.35" r="22.76"/><circle class="cls-3" cx="803.28" cy="24.35" r="14.48"/><circle class="cls-2" cx="635.51" cy="308.23" r="22.76"/><circle class="cls-2" cx="383.7" cy="744.69" r="22.76"/><circle class="cls-2" cx="1307.32" cy="309.07" r="22.76"/><circle class="cls-2" cx="887.73" cy="453.64" r="22.76"/><text class="cls-4" transform="translate(0 211.6)">LEARNING</text><text class="cls-5" transform="translate(2.8 482.08)">UNDERS<tspan class="cls-6" x="144.02" y="0">T</tspan><tspan x="163.13" y="0">ANDING</tspan></text><text class="cls-5" transform="translate(414.55 601.61)">SKIL<tspan class="cls-7" x="80" y="0">L</tspan></text><text class="cls-5" transform="translate(650.4 462.47)">LESSON</text><text class="cls-5" transform="translate(887.73 314.13)">PRACTICE</text><text class="cls-5" transform="translate(887.73 613.52)">TRAINING</text><text class="cls-5" transform="translate(1116.78 463.55)">KNOWLEDGE</text><path class="cls-8" d="M1024.48,725.34c2.3,0,4.6-.15,6.88,0a41.67,41.67,0,0,1,34.06,22.87,41.77,41.77,0,0,1,3.91,12.69,40.8,40.8,0,0,1-1.79,19.58,41.27,41.27,0,0,1-12.41,18.18,48,48,0,0,1-10.8,6.8c-3.77,1.78-7.57,3.51-11.2,5.53-3.16,1.76-6.15,3.83-9.14,5.87-4.28,2.92-8.5,6-12.74,8.93l-2.26,1.57c-1.34,1-2.22,1-3.52.14q-11-7.42-22.05-14.89c-.88-.59-1.72-1.25-2.61-1.84-2.19-1.44-2.52-2.23-1.89-4.75,1.18-4.71,2.42-9.41,3.54-14.14a115.92,115.92,0,0,0,2.89-17c.36-4.31.64-8.63,1.1-12.93a40.23,40.23,0,0,1,4.4-14.31A39.54,39.54,0,0,1,998.76,737a41.2,41.2,0,0,1,13.07-8.49,47.33,47.33,0,0,1,12.13-3.09l.52-.06Zm-17.3,97c1-.73,2.06-1.48,3.1-2.2,4.64-3.23,9.19-6.57,13.93-9.64,4-2.59,8.13-5,12.32-7.25,2.9-1.58,6-2.7,9-4.23a34.24,34.24,0,0,0,10.69-8.83,36.53,36.53,0,0,0-6.6-52.77,35.33,35.33,0,0,0-18.11-6.83,37.93,37.93,0,0,0-14.38,1.58,36,36,0,0,0-21.42,17.57,33.28,33.28,0,0,0-3.8,11.12c-.56,4-.78,8.08-1.08,12.13a125.77,125.77,0,0,1-2.72,17.81c-1.16,5.16-2.49,10.27-3.71,15.41a1,1,0,0,0,.28.84c1.46,1.05,3,2.05,4.53,3.12.16-.21.28-.35.38-.5q3.51-5.17,7-10.34l14.69-21.75c1.38-2.05,1.38-2-.65-3.43a7.85,7.85,0,0,1-3.16-9,7.76,7.76,0,0,1,9-5.25,7.59,7.59,0,0,1,6,9.51,29.19,29.19,0,0,1-2.3,4.84l4.15,2.83,1.39-2.07a7.8,7.8,0,0,1,8.36-3.31,7.2,7.2,0,0,1,5.9,6.34,7.69,7.69,0,0,1-9.77,8.76,31.54,31.54,0,0,1-4.62-2.3L1002.18,819ZM997.84,816c1.15-1.66,2.24-3.19,3.3-4.76q5.57-8.21,11.1-16.44,4.28-6.33,8.53-12.66c.18-.26.29-.89.16-1-1.28-.94-2.62-1.8-4-2.7-7.85,11.6-15.63,23.08-23.45,34.61Zm30.73-36.07c.78.54,1.45,1,2.16,1.5a2.6,2.6,0,1,0-.69-3.54Zm-12.9-8.71a16.68,16.68,0,0,0,1.71-3.09,2.52,2.52,0,0,0-1.69-3.09,2.74,2.74,0,0,0-3.2,1.52,2.64,2.64,0,0,0,1.09,3.24Z" transform="translate(-290.8 -45.02)"/><path class="cls-8" d="M963.43,842.31c.29-1.3.53-2.62.9-3.91.16-.55.1-.85-.37-1.14s-1.18-.79-1.77-1.19a2.6,2.6,0,0,1-.62-3.77,2.69,2.69,0,0,1,3.65-.47c1.9,1.25,3.8,2.51,5.68,3.79q6.69,4.51,13.34,9.07c2.24,1.52,4.5,3,6.72,4.56a2.64,2.64,0,0,1-.85,4.81,4.56,4.56,0,0,1-1.65-.24,2.55,2.55,0,0,1-.72-.43c-1.83-1.21-1.84-1.21-3.62,0a13.16,13.16,0,0,1-18.25-3.22A14.84,14.84,0,0,1,963.43,842.31Zm17.81,6.7-12-8.13c-1,2-.28,5.27,1.82,7.37A7.88,7.88,0,0,0,981.24,849Z" transform="translate(-290.8 -45.02)"/><path class="cls-8" d="M975.39,813.85a11,11,0,0,1,1.63.73q12.74,8.59,25.44,17.21c1.83,1.24,2,3,.55,4.36-1,.88-2.13.89-3.44,0l-16.22-11c-3-2.06-6.06-4.09-9.09-6.14-1.76-1.19-2-3.19-.56-4.37A7.52,7.52,0,0,1,975.39,813.85Z" transform="translate(-290.8 -45.02)"/><path class="cls-8" d="M969.65,822.56a9.8,9.8,0,0,1,1.51.68q12.6,8.47,25.17,17c1,.67,1.9,1.46,1.74,2.86-.26,2.15-2.35,3.07-4.26,1.82s-4.07-2.74-6.1-4.11q-7.53-5.13-15.07-10.25c-1.44-1-2.9-1.92-4.34-2.91a2.69,2.69,0,0,1-1.24-3.23A2.79,2.79,0,0,1,969.65,822.56Z" transform="translate(-290.8 -45.02)"/><path class="cls-8" d="M976.49,747.42l-6.39-.83-10.51-1.41c-1.92-.26-2.85-1.08-2.9-2.55a2.6,2.6,0,0,1,3-2.75l14.61,2c.89.12,1.77.24,2.64.42a2.6,2.6,0,0,1-.49,5.17Z" transform="translate(-290.8 -45.02)"/><path class="cls-8" d="M1076.19,824.26a2.68,2.68,0,0,1-2.51-1.53c-2.76-4.92-5.49-9.86-8.24-14.79a2.63,2.63,0,1,1,4.54-2.6c1.86,3.28,3.69,6.58,5.52,9.87q1.47,2.64,2.93,5.29A2.54,2.54,0,0,1,1076.19,824.26Z" transform="translate(-290.8 -45.02)"/><path class="cls-8" d="M996.82,718.38a2.71,2.71,0,0,1-1.79,2.9,2.3,2.3,0,0,1-2.81-.94c-1.31-2.1-2.55-4.24-3.77-6.4-1.63-2.87-3.18-5.79-4.82-8.66-1.2-2.1-.33-4.14,1.92-4.32a2.66,2.66,0,0,1,2.62,1.69l3.82,6.8c1.3,2.31,2.63,4.62,3.91,6.95C996.31,717.14,996.62,717.94,996.82,718.38Z" transform="translate(-290.8 -45.02)"/><path class="cls-8" d="M1105.11,782.77a2.56,2.56,0,0,1-2.87,2.56c-3.78-.47-7.56-1-11.33-1.52-2-.27-4-.5-6-.79-2.19-.33-3.2-2.6-1.75-4.19a3.42,3.42,0,0,1,2.42-1c2.27.13,4.52.52,6.77.83,3.42.47,6.84,1,10.27,1.39A2.74,2.74,0,0,1,1105.11,782.77Z" transform="translate(-290.8 -45.02)"/><path class="cls-8" d="M1092.12,802a3,3,0,0,1-1.42,2.39,2.51,2.51,0,0,1-3-.17L1077,797c-.74-.5-1.49-1-2.2-1.52a2.57,2.57,0,0,1-.6-3.58,2.71,2.71,0,0,1,3.56-.71c4.38,3,8.75,5.92,13.07,9C1091.42,800.55,1091.7,801.39,1092.12,802Z" transform="translate(-290.8 -45.02)"/><path class="cls-8" d="M988.21,731.73a3,3,0,0,1-1.48,2.31A2.33,2.33,0,0,1,984,734l-7.91-5.3c-1.71-1.16-3.44-2.31-5.13-3.51a2.6,2.6,0,0,1-.73-3.56,2.57,2.57,0,0,1,3.67-.68c4.34,3,8.73,5.84,13,8.83C987.56,730.15,987.81,731.05,988.21,731.73Z" transform="translate(-290.8 -45.02)"/><path class="cls-8" d="M1034.83,736.43c16.78,3.39,26.56,20.5,24.07,34.5l-4.79-.64c-.11-2.4-.15-4.7-.34-7a22.1,22.1,0,0,0-2.49-8.13,25.08,25.08,0,0,0-10.9-11.18,41.69,41.69,0,0,0-5.77-2.28c-.71-.24-.91-.39-.7-1.15C1034.29,739.21,1034.53,737.81,1034.83,736.43Z" transform="translate(-290.8 -45.02)"/><path class="cls-8" d="M1050.84,779.7l2-4.52c1.48.46,3,.9,4.45,1.41a.75.75,0,0,1,.26.68c-.66,1.63-1.36,3.24-2.1,5Z" transform="translate(-290.8 -45.02)"/><path class="cls-8" d="M1398,200.87a15.73,15.73,0,0,1,2.75-2.13q43.47-20.53,87-41a4.54,4.54,0,0,1,4.24,0q43.48,20.52,87,41c1.41.66,2.73,1.36,2.69,3.18s-1.31,2.38-2.66,3c-9.08,4.25-18.14,8.56-27.24,12.77a2.46,2.46,0,0,0-1.68,2.67c.07,8.84,0,17.69.07,26.54a17.33,17.33,0,0,1-3.18,10.24,37.51,37.51,0,0,1-10,9.65,2.33,2.33,0,0,0-1.21,2.33,33.06,33.06,0,0,1,0,3.59c-.08,2.58-.15,4.71,2.72,6.53,3.84,2.45,4,7.94,1.18,11.68a4.18,4.18,0,0,0-.76,2.54c.3,4.71.77,9.41,1.13,14.11.2,2.63-.89,3.77-3.51,3.79q-3.59,0-7.17,0c-2.72,0-3.79-1.15-3.57-3.9.36-4.71.83-9.4,1.14-14.11a3.84,3.84,0,0,0-.73-2.38,8.57,8.57,0,0,1,2.62-12.94,1.91,1.91,0,0,0,1.24-2c-.08-1.54,0-3.09,0-4.87-1.93.87-3.67,1.75-5.47,2.46-26.82,10.55-53,9.46-78.34-4.56a41.78,41.78,0,0,1-11.75-9.59,19.14,19.14,0,0,1-4.92-13.26c.2-8.6,0-17.21.09-25.82a2.47,2.47,0,0,0-1.67-2.68q-13.67-6.3-27.22-12.81a15.73,15.73,0,0,1-2.71-2.17Zm173.91,1c-.5-.27-.81-.46-1.13-.61q-39.91-18.79-79.86-37.56a3,3,0,0,0-2.29.06q-35.43,16.59-70.8,33.28c-3.31,1.55-6.6,3.12-10,4.73a5.18,5.18,0,0,0,.61.46q40.17,18.92,80.35,37.79a3.16,3.16,0,0,0,2.3-.07c3.92-1.75,7.8-3.62,11.68-5.45l24.5-11.56c-.63-.35-1.06-.63-1.52-.86l-36.19-18.11a11.78,11.78,0,0,1-1.12-.57,2.82,2.82,0,0,1-1.2-3.84,2.78,2.78,0,0,1,3.67-1.28c.5.2,1,.46,1.45.7,13.13,6.56,26.27,13.09,39.37,19.71a4.53,4.53,0,0,0,4.48.12c8.86-4.29,17.79-8.44,26.7-12.64C1565.85,204.74,1568.8,203.32,1571.91,201.83ZM1435.3,221.21v2.19c0,7.59.13,15.18,0,22.77a13,13,0,0,0,3.38,9.15,41.25,41.25,0,0,0,10.62,8.71,76.56,76.56,0,0,0,34.09,10.48,80.5,80.5,0,0,0,45.3-9.41,2.28,2.28,0,0,0,1.38-2.36c0-11,0-22,0-33,0-.51,0-1-.08-1.72-.88.39-1.57.69-2.26,1-11.72,5.51-23.45,11-35.13,16.58a5.7,5.7,0,0,1-5.41,0c-16.49-7.84-33-15.58-49.55-23.36C1436.88,221.91,1436.19,221.61,1435.3,221.21Zm100.43,38.7.72.49c1.59-1.77,3.21-3.51,4.75-5.32a12.68,12.68,0,0,0,3.19-8.84c-.16-7.64-.05-15.29-.05-22.93V221.2c-2.58,1.21-4.86,2.36-7.21,3.35a2.07,2.07,0,0,0-1.43,2.29c0,10.56,0,21.13,0,31.7Zm-2.8,28.47a2.86,2.86,0,1,0-2.93-2.74A2.9,2.9,0,0,0,1532.93,288.38Zm1.11,17.17c-.33-3.85-.64-7.51-1-11.17h-.47c-.3,3.7-.61,7.41-.92,11.16Z" transform="translate(-290.8 -45.02)"/></g></svg>